<mxfile host="Electron" modified="2024-03-28T20:15:18.276Z" agent="Mozilla/5.0 (Windows NT 10.0; Win64; x64) AppleWebKit/537.36 (KHTML, like Gecko) draw.io/24.1.0 Chrome/120.0.6099.109 Electron/28.1.0 Safari/537.36" etag="u7V5UXMvMZjjjbkYMohU" version="24.1.0" type="device">
  <diagram name="Página-1" id="40w1Ztmjjz_BBWZfvjY8">
    <mxGraphModel dx="1420" dy="1999" grid="1" gridSize="10" guides="1" tooltips="1" connect="1" arrows="1" fold="1" page="1" pageScale="1" pageWidth="827" pageHeight="1169" background="#CCE5FF" math="0" shadow="0">
      <root>
        <mxCell id="0" />
        <mxCell id="1" parent="0" />
        <mxCell id="AiLR0EmHwUtE2bzTWQmk-1" value="&lt;p style=&quot;line-height: 110%;&quot;&gt;&lt;b style=&quot;font-size: 16px;&quot;&gt;&lt;font color=&quot;#000000&quot; style=&quot;font-size: 16px;&quot; face=&quot;Comic Sans MS&quot;&gt;4&lt;br&gt;&lt;br&gt;Hacer un programa para ingresar por teclado dos números y luego informar por pantalla la diferencia absoluta entre ambos. &lt;br&gt;&lt;br&gt;Ejemplo A: Si se ingresan 3 y 8 se emite 5. Si se ingresan 8 y 3 se emite 5. Ejemplo B: Si se ingresan -3 y 9 se emite 12. Si se ingresan -12 y -1 se emite 11.&lt;br&gt;&lt;br&gt;Ejemplo C: Si se ingresan -3 y -9 se emite 6. Si se ingresan -12 y -9 se emite 3.&lt;br&gt;&lt;br&gt;Importante: Verifique que el programa emite SIEMPRE UN VALOR POSITIVO porque la diferencia absoluta siempre es un valor positivo.&lt;/font&gt;&lt;/b&gt;&lt;/p&gt;" style="text;whiteSpace=wrap;html=1;fontFamily=Architects Daughter;fontSource=https%3A%2F%2Ffonts.googleapis.com%2Fcss%3Ffamily%3DArchitects%2BDaughter;" vertex="1" parent="1">
          <mxGeometry x="30" y="-10" width="710" height="190" as="geometry" />
        </mxCell>
        <mxCell id="AiLR0EmHwUtE2bzTWQmk-39" value="" style="group;aspect=fixed;" vertex="1" connectable="0" parent="1">
          <mxGeometry x="105" y="230" width="500" height="430" as="geometry" />
        </mxCell>
        <mxCell id="AiLR0EmHwUtE2bzTWQmk-2" value="" style="strokeWidth=2;html=1;shape=mxgraph.flowchart.start_2;whiteSpace=wrap;rounded=0;labelBackgroundColor=none;strokeColor=#000000;align=center;verticalAlign=middle;fontFamily=Helvetica;fontSize=12;fontColor=default;fillColor=#d5e8d4;" vertex="1" parent="AiLR0EmHwUtE2bzTWQmk-39">
          <mxGeometry x="225" width="40" height="40" as="geometry" />
        </mxCell>
        <mxCell id="AiLR0EmHwUtE2bzTWQmk-4" value="" style="shape=trapezoid;perimeter=trapezoidPerimeter;whiteSpace=wrap;html=1;fixedSize=1;rounded=0;labelBackgroundColor=none;strokeColor=#121211;strokeWidth=2;align=center;verticalAlign=middle;fontFamily=Helvetica;fontSize=12;fontColor=default;fillColor=#d5e8d4;direction=west;container=1;aspect=fixed;" vertex="1" parent="AiLR0EmHwUtE2bzTWQmk-39">
          <mxGeometry x="165" y="70" width="160" height="40" as="geometry">
            <mxRectangle x="-1020" y="-650" width="50" height="40" as="alternateBounds" />
          </mxGeometry>
        </mxCell>
        <mxCell id="AiLR0EmHwUtE2bzTWQmk-12" value="&lt;font size=&quot;1&quot; face=&quot;Comic Sans MS&quot; color=&quot;#000000&quot;&gt;&lt;b style=&quot;font-size: 16px;&quot;&gt;num1, num2&lt;/b&gt;&lt;/font&gt;" style="text;strokeColor=none;align=center;fillColor=none;html=1;verticalAlign=middle;whiteSpace=wrap;rounded=0;fontFamily=Architects Daughter;fontSource=https%3A%2F%2Ffonts.googleapis.com%2Fcss%3Ffamily%3DArchitects%2BDaughter;aspect=fixed;" vertex="1" parent="AiLR0EmHwUtE2bzTWQmk-4">
          <mxGeometry x="25" y="5" width="110" height="30" as="geometry" />
        </mxCell>
        <mxCell id="AiLR0EmHwUtE2bzTWQmk-24" value="" style="line;strokeWidth=2;direction=south;html=1;hachureGap=4;fontFamily=Architects Daughter;fontSource=https://fonts.googleapis.com/css?family=Architects+Daughter;strokeColor=#000000;" vertex="1" parent="AiLR0EmHwUtE2bzTWQmk-4">
          <mxGeometry x="75" y="-30" width="10" height="30" as="geometry" />
        </mxCell>
        <mxCell id="AiLR0EmHwUtE2bzTWQmk-9" value="&lt;b&gt;&lt;font color=&quot;#000000&quot; style=&quot;font-size: 17px;&quot; face=&quot;Comic Sans MS&quot;&gt;I&lt;/font&gt;&lt;/b&gt;" style="text;strokeColor=none;align=center;fillColor=none;html=1;verticalAlign=middle;whiteSpace=wrap;rounded=0;fontFamily=Architects Daughter;fontSource=https%3A%2F%2Ffonts.googleapis.com%2Fcss%3Ffamily%3DArchitects%2BDaughter;" vertex="1" parent="AiLR0EmHwUtE2bzTWQmk-39">
          <mxGeometry x="215" y="5" width="60" height="30" as="geometry" />
        </mxCell>
        <mxCell id="AiLR0EmHwUtE2bzTWQmk-11" value="" style="group" vertex="1" connectable="0" parent="AiLR0EmHwUtE2bzTWQmk-39">
          <mxGeometry x="215" y="390" width="60" height="40" as="geometry" />
        </mxCell>
        <mxCell id="AiLR0EmHwUtE2bzTWQmk-3" value="" style="strokeWidth=2;html=1;shape=mxgraph.flowchart.start_2;whiteSpace=wrap;rounded=0;labelBackgroundColor=none;strokeColor=#000000;align=center;verticalAlign=middle;fontFamily=Helvetica;fontSize=12;fontColor=default;fillColor=#d5e8d4;aspect=fixed;" vertex="1" parent="AiLR0EmHwUtE2bzTWQmk-11">
          <mxGeometry x="10" width="40" height="40" as="geometry" />
        </mxCell>
        <mxCell id="AiLR0EmHwUtE2bzTWQmk-10" value="&lt;b&gt;&lt;font style=&quot;font-size: 17px;&quot; color=&quot;#000000&quot; face=&quot;Comic Sans MS&quot;&gt;F&lt;/font&gt;&lt;/b&gt;" style="text;strokeColor=none;align=center;fillColor=none;html=1;verticalAlign=middle;whiteSpace=wrap;rounded=0;fontFamily=Architects Daughter;fontSource=https%3A%2F%2Ffonts.googleapis.com%2Fcss%3Ffamily%3DArchitects%2BDaughter;aspect=fixed;" vertex="1" parent="AiLR0EmHwUtE2bzTWQmk-11">
          <mxGeometry y="5" width="60" height="30" as="geometry" />
        </mxCell>
        <mxCell id="AiLR0EmHwUtE2bzTWQmk-38" value="" style="line;strokeWidth=2;direction=south;html=1;hachureGap=4;fontFamily=Architects Daughter;fontSource=https://fonts.googleapis.com/css?family=Architects+Daughter;strokeColor=#000000;" vertex="1" parent="AiLR0EmHwUtE2bzTWQmk-11">
          <mxGeometry x="25" y="-20" width="10" height="20" as="geometry" />
        </mxCell>
        <mxCell id="AiLR0EmHwUtE2bzTWQmk-14" value="" style="group" vertex="1" connectable="0" parent="AiLR0EmHwUtE2bzTWQmk-39">
          <mxGeometry x="185" y="140" width="120" height="100" as="geometry" />
        </mxCell>
        <mxCell id="AiLR0EmHwUtE2bzTWQmk-8" value="" style="rhombus;whiteSpace=wrap;html=1;rounded=0;labelBackgroundColor=none;strokeColor=#0F140C;strokeWidth=2;align=center;verticalAlign=middle;fontFamily=Helvetica;fontSize=12;fontColor=default;fillColor=#d5e8d4;aspect=fixed;" vertex="1" parent="AiLR0EmHwUtE2bzTWQmk-14">
          <mxGeometry width="120" height="100" as="geometry" />
        </mxCell>
        <mxCell id="AiLR0EmHwUtE2bzTWQmk-13" value="&lt;b&gt;&lt;font face=&quot;Comic Sans MS&quot; style=&quot;font-size: 15px;&quot; color=&quot;#000000&quot;&gt;num1&amp;nbsp;&lt;/font&gt;&lt;/b&gt;&lt;div&gt;&lt;b&gt;&lt;font face=&quot;Comic Sans MS&quot; style=&quot;font-size: 15px;&quot; color=&quot;#000000&quot;&gt;&amp;gt;&amp;nbsp;&lt;/font&gt;&lt;/b&gt;&lt;/div&gt;&lt;div&gt;&lt;b&gt;&lt;font face=&quot;Comic Sans MS&quot; style=&quot;font-size: 15px;&quot; color=&quot;#000000&quot;&gt;num2&lt;/font&gt;&lt;/b&gt;&lt;/div&gt;" style="text;strokeColor=none;align=center;fillColor=none;html=1;verticalAlign=middle;whiteSpace=wrap;rounded=0;fontFamily=Architects Daughter;fontSource=https%3A%2F%2Ffonts.googleapis.com%2Fcss%3Ffamily%3DArchitects%2BDaughter;aspect=fixed;" vertex="1" parent="AiLR0EmHwUtE2bzTWQmk-14">
          <mxGeometry x="30" y="30" width="60" height="40" as="geometry" />
        </mxCell>
        <mxCell id="AiLR0EmHwUtE2bzTWQmk-31" value="" style="line;strokeWidth=2;direction=south;html=1;hachureGap=4;fontFamily=Architects Daughter;fontSource=https://fonts.googleapis.com/css?family=Architects+Daughter;strokeColor=#000000;" vertex="1" parent="AiLR0EmHwUtE2bzTWQmk-14">
          <mxGeometry x="55" y="-30" width="10" height="30" as="geometry" />
        </mxCell>
        <mxCell id="AiLR0EmHwUtE2bzTWQmk-20" value="" style="group" vertex="1" connectable="0" parent="AiLR0EmHwUtE2bzTWQmk-39">
          <mxGeometry y="240" width="205" height="30" as="geometry" />
        </mxCell>
        <mxCell id="AiLR0EmHwUtE2bzTWQmk-16" value="" style="rounded=0;whiteSpace=wrap;html=1;labelBackgroundColor=none;strokeColor=#0f100e;strokeWidth=2;align=center;verticalAlign=middle;fontFamily=Helvetica;fontSize=12;fontColor=default;fillColor=#d5e8d4;" vertex="1" parent="AiLR0EmHwUtE2bzTWQmk-20">
          <mxGeometry width="205" height="30" as="geometry" />
        </mxCell>
        <mxCell id="AiLR0EmHwUtE2bzTWQmk-19" value="&lt;b&gt;&lt;font face=&quot;Comic Sans MS&quot; color=&quot;#000000&quot; style=&quot;font-size: 14px;&quot;&gt;diferencia = num1 - num2&lt;/font&gt;&lt;/b&gt;" style="text;html=1;align=center;verticalAlign=middle;resizable=0;points=[];autosize=1;strokeColor=none;fillColor=none;fontFamily=Architects Daughter;fontSource=https%3A%2F%2Ffonts.googleapis.com%2Fcss%3Ffamily%3DArchitects%2BDaughter;" vertex="1" parent="AiLR0EmHwUtE2bzTWQmk-20">
          <mxGeometry x="2.5" width="200" height="30" as="geometry" />
        </mxCell>
        <mxCell id="AiLR0EmHwUtE2bzTWQmk-21" value="" style="group" vertex="1" connectable="0" parent="AiLR0EmHwUtE2bzTWQmk-39">
          <mxGeometry x="285" y="240" width="215" height="30" as="geometry" />
        </mxCell>
        <mxCell id="AiLR0EmHwUtE2bzTWQmk-17" value="" style="rounded=0;whiteSpace=wrap;html=1;labelBackgroundColor=none;strokeColor=#0f100e;strokeWidth=2;align=center;verticalAlign=middle;fontFamily=Helvetica;fontSize=12;fontColor=default;fillColor=#d5e8d4;aspect=fixed;" vertex="1" parent="AiLR0EmHwUtE2bzTWQmk-21">
          <mxGeometry width="215" height="30" as="geometry" />
        </mxCell>
        <mxCell id="AiLR0EmHwUtE2bzTWQmk-18" value="&lt;b&gt;&lt;font face=&quot;Comic Sans MS&quot; color=&quot;#000000&quot; style=&quot;font-size: 14px;&quot;&gt;diferencia = num2 - num1&lt;/font&gt;&lt;/b&gt;" style="text;strokeColor=none;align=center;fillColor=none;html=1;verticalAlign=middle;whiteSpace=wrap;rounded=0;fontFamily=Architects Daughter;fontSource=https%3A%2F%2Ffonts.googleapis.com%2Fcss%3Ffamily%3DArchitects%2BDaughter;aspect=fixed;" vertex="1" parent="AiLR0EmHwUtE2bzTWQmk-21">
          <mxGeometry x="17.5" width="180" height="30" as="geometry" />
        </mxCell>
        <mxCell id="AiLR0EmHwUtE2bzTWQmk-23" value="" style="group" vertex="1" connectable="0" parent="AiLR0EmHwUtE2bzTWQmk-39">
          <mxGeometry x="172.5" y="340" width="145" height="30" as="geometry" />
        </mxCell>
        <mxCell id="AiLR0EmHwUtE2bzTWQmk-7" value="" style="shape=trapezoid;perimeter=trapezoidPerimeter;whiteSpace=wrap;html=1;fixedSize=1;rounded=0;labelBackgroundColor=none;strokeColor=#0F140C;strokeWidth=2;align=center;verticalAlign=middle;fontFamily=Helvetica;fontSize=12;fontColor=default;fillColor=#d5e8d4;aspect=fixed;" vertex="1" parent="AiLR0EmHwUtE2bzTWQmk-23">
          <mxGeometry width="145" height="30" as="geometry" />
        </mxCell>
        <mxCell id="AiLR0EmHwUtE2bzTWQmk-22" value="&lt;b&gt;&lt;font color=&quot;#000000&quot; style=&quot;font-size: 15px;&quot; face=&quot;Comic Sans MS&quot;&gt;diferencia&lt;/font&gt;&lt;/b&gt;" style="text;strokeColor=none;align=center;fillColor=none;html=1;verticalAlign=middle;whiteSpace=wrap;rounded=0;fontFamily=Architects Daughter;fontSource=https%3A%2F%2Ffonts.googleapis.com%2Fcss%3Ffamily%3DArchitects%2BDaughter;aspect=fixed;" vertex="1" parent="AiLR0EmHwUtE2bzTWQmk-23">
          <mxGeometry x="45" width="60" height="30" as="geometry" />
        </mxCell>
        <mxCell id="AiLR0EmHwUtE2bzTWQmk-26" value="" style="line;strokeWidth=2;html=1;perimeter=backbonePerimeter;points=[];outlineConnect=0;hachureGap=4;fontFamily=Architects Daughter;fontSource=https://fonts.googleapis.com/css?family=Architects+Daughter;strokeColor=#000000;" vertex="1" parent="AiLR0EmHwUtE2bzTWQmk-39">
          <mxGeometry x="95" y="304" width="300" height="10" as="geometry" />
        </mxCell>
        <mxCell id="AiLR0EmHwUtE2bzTWQmk-29" value="" style="line;strokeWidth=2;html=1;perimeter=backbonePerimeter;points=[];outlineConnect=0;hachureGap=4;fontFamily=Architects Daughter;fontSource=https://fonts.googleapis.com/css?family=Architects+Daughter;strokeColor=#000000;" vertex="1" parent="AiLR0EmHwUtE2bzTWQmk-39">
          <mxGeometry x="95" y="185" width="90" height="10" as="geometry" />
        </mxCell>
        <mxCell id="AiLR0EmHwUtE2bzTWQmk-30" value="" style="line;strokeWidth=2;html=1;perimeter=backbonePerimeter;points=[];outlineConnect=0;hachureGap=4;fontFamily=Architects Daughter;fontSource=https://fonts.googleapis.com/css?family=Architects+Daughter;strokeColor=#000000;" vertex="1" parent="AiLR0EmHwUtE2bzTWQmk-39">
          <mxGeometry x="305" y="185" width="90" height="10" as="geometry" />
        </mxCell>
        <mxCell id="AiLR0EmHwUtE2bzTWQmk-32" value="" style="line;strokeWidth=2;direction=south;html=1;hachureGap=4;fontFamily=Architects Daughter;fontSource=https://fonts.googleapis.com/css?family=Architects+Daughter;strokeColor=#000000;" vertex="1" parent="AiLR0EmHwUtE2bzTWQmk-39">
          <mxGeometry x="387.5" y="190" width="10" height="50" as="geometry" />
        </mxCell>
        <mxCell id="AiLR0EmHwUtE2bzTWQmk-33" value="" style="line;strokeWidth=2;direction=south;html=1;hachureGap=4;fontFamily=Architects Daughter;fontSource=https://fonts.googleapis.com/css?family=Architects+Daughter;strokeColor=#000000;" vertex="1" parent="AiLR0EmHwUtE2bzTWQmk-39">
          <mxGeometry x="92" y="190" width="10" height="50" as="geometry" />
        </mxCell>
        <mxCell id="AiLR0EmHwUtE2bzTWQmk-34" value="" style="line;strokeWidth=2;direction=south;html=1;hachureGap=4;fontFamily=Architects Daughter;fontSource=https://fonts.googleapis.com/css?family=Architects+Daughter;strokeColor=#000000;" vertex="1" parent="AiLR0EmHwUtE2bzTWQmk-39">
          <mxGeometry x="92" y="270" width="10" height="40" as="geometry" />
        </mxCell>
        <mxCell id="AiLR0EmHwUtE2bzTWQmk-35" value="" style="line;strokeWidth=2;direction=south;html=1;hachureGap=4;fontFamily=Architects Daughter;fontSource=https://fonts.googleapis.com/css?family=Architects+Daughter;strokeColor=#000000;" vertex="1" parent="AiLR0EmHwUtE2bzTWQmk-39">
          <mxGeometry x="387.5" y="270" width="10" height="40" as="geometry" />
        </mxCell>
        <mxCell id="AiLR0EmHwUtE2bzTWQmk-37" value="" style="line;strokeWidth=2;direction=south;html=1;hachureGap=4;fontFamily=Architects Daughter;fontSource=https://fonts.googleapis.com/css?family=Architects+Daughter;strokeColor=#000000;" vertex="1" parent="AiLR0EmHwUtE2bzTWQmk-39">
          <mxGeometry x="240" y="310" width="10" height="30" as="geometry" />
        </mxCell>
      </root>
    </mxGraphModel>
  </diagram>
</mxfile>
